<svg width="200" height="200" viewBox="0 0 200 200" fill="none" xmlns="http://www.w3.org/2000/svg">
<g clip-path="url(#clip0_1029_2)">
<path d="M162.5 100C162.5 107.05 161.325 113.838 159.175 120.163L149 109.988C149.666 106.7 150.001 103.354 150 100V87.5C150 85.8424 150.658 84.2527 151.831 83.0806C153.003 81.9085 154.592 81.25 156.25 81.25C157.908 81.25 159.497 81.9085 160.669 83.0806C161.842 84.2527 162.5 85.8424 162.5 87.5V100ZM100 150C110.225 150 119.725 146.938 127.65 141.663L136.625 150.65C127.702 157.121 117.219 161.103 106.25 162.188V187.5H143.75C145.408 187.5 146.997 188.158 148.169 189.331C149.342 190.503 150 192.092 150 193.75C150 195.408 149.342 196.997 148.169 198.169C146.997 199.342 145.408 200 143.75 200H56.25C54.5924 200 53.0027 199.342 51.8306 198.169C50.6585 196.997 50 195.408 50 193.75C50 192.092 50.6585 190.503 51.8306 189.331C53.0027 188.158 54.5924 187.5 56.25 187.5H93.75V162.188C78.3336 160.638 64.0422 153.418 53.6485 141.927C43.2548 130.436 37.4998 115.494 37.5 100V87.5C37.5 85.8424 38.1585 84.2527 39.3306 83.0806C40.5027 81.9085 42.0924 81.25 43.75 81.25C45.4076 81.25 46.9973 81.9085 48.1694 83.0806C49.3415 84.2527 50 85.8424 50 87.5V100C50 113.261 55.2678 125.979 64.6447 135.355C74.0215 144.732 86.7392 150 100 150ZM137.5 37.5V98.4875L125 85.9875V37.5C125.029 30.9782 122.508 24.7034 117.975 20.0142C113.443 15.325 107.257 12.5927 100.738 12.4002C94.219 12.2078 87.8829 14.5704 83.0815 18.984C78.28 23.3977 75.3934 29.5129 75.0375 36.025L64.475 25.4625C67.3368 17.053 73.09 9.93197 80.7104 5.36708C88.3309 0.802202 97.324 -0.910273 106.089 0.534524C114.854 1.97932 122.821 6.48763 128.573 13.2569C134.325 20.0261 137.489 28.6169 137.5 37.5Z" fill="black"/>
<path d="M118.575 132.588L109.225 123.238C105.433 124.743 101.33 125.298 97.2737 124.853C93.2178 124.408 89.3325 122.977 85.9569 120.685C82.5812 118.393 79.8178 115.31 77.9079 111.704C75.998 108.098 74.9997 104.08 75 100V89.025L62.5 76.525V100C62.498 106.566 64.2203 113.018 67.4946 118.71C70.769 124.402 75.4805 129.134 81.1578 132.434C86.8352 135.733 93.2794 137.484 99.8458 137.511C106.412 137.538 112.871 135.84 118.575 132.588ZM20.575 16.925L170.575 166.925L179.425 158.075L29.425 8.075L20.575 16.925Z" fill="black"/>
</g>
<defs>
<clipPath id="clip0_1029_2">
<rect width="200" height="200" fill="white"/>
</clipPath>
</defs>
</svg>
