<svg width="200" height="200" viewBox="0 0 200 200" fill="none" xmlns="http://www.w3.org/2000/svg">
<path d="M43.75 81.25C45.4076 81.25 46.9973 81.9085 48.1694 83.0806C49.3415 84.2527 50 85.8424 50 87.5V100C50 113.261 55.2678 125.979 64.6447 135.355C74.0215 144.732 86.7392 150 100 150C113.261 150 125.979 144.732 135.355 135.355C144.732 125.979 150 113.261 150 100V87.5C150 85.8424 150.658 84.2527 151.831 83.0806C153.003 81.9085 154.592 81.25 156.25 81.25C157.908 81.25 159.497 81.9085 160.669 83.0806C161.842 84.2527 162.5 85.8424 162.5 87.5V100C162.5 115.494 156.745 130.436 146.352 141.927C135.958 153.418 121.666 160.638 106.25 162.188V187.5H143.75C145.408 187.5 146.997 188.158 148.169 189.331C149.342 190.503 150 192.092 150 193.75C150 195.408 149.342 196.997 148.169 198.169C146.997 199.342 145.408 200 143.75 200H56.25C54.5924 200 53.0027 199.342 51.8306 198.169C50.6585 196.997 50 195.408 50 193.75C50 192.092 50.6585 190.503 51.8306 189.331C53.0027 188.158 54.5924 187.5 56.25 187.5H93.75V162.188C78.3336 160.638 64.0422 153.418 53.6485 141.927C43.2548 130.436 37.4998 115.494 37.5 100V87.5C37.5 85.8424 38.1585 84.2527 39.3306 83.0806C40.5027 81.9085 42.0924 81.25 43.75 81.25Z" fill="black"/>
<path d="M125 100C125 106.63 122.366 112.989 117.678 117.678C112.989 122.366 106.63 125 100 125C93.3696 125 87.0107 122.366 82.3223 117.678C77.6339 112.989 75 106.63 75 100V37.5C75 30.8696 77.6339 24.5107 82.3223 19.8223C87.0107 15.1339 93.3696 12.5 100 12.5C106.63 12.5 112.989 15.1339 117.678 19.8223C122.366 24.5107 125 30.8696 125 37.5V100ZM100 0C90.0544 0 80.5161 3.95088 73.4835 10.9835C66.4509 18.0161 62.5 27.5544 62.5 37.5V100C62.5 109.946 66.4509 119.484 73.4835 126.517C80.5161 133.549 90.0544 137.5 100 137.5C109.946 137.5 119.484 133.549 126.517 126.517C133.549 119.484 137.5 109.946 137.5 100V37.5C137.5 27.5544 133.549 18.0161 126.517 10.9835C119.484 3.95088 109.946 0 100 0Z" fill="black"/>
</svg>
